<svg xmlns="http://www.w3.org/2000/svg" viewBox="0 0 100 100"><title>Asset 13</title><g id="Layer_2" data-name="Layer 2"><g id="dime-clipart-head-tail-3-1_crop_Image" data-name="dime-clipart-head-tail-3-1_crop Image"><circle cx="50" cy="50" r="50" style="fill:#6d6f72"/><circle cx="50" cy="49.46" r="48.91" style="fill:#b5b8ba"/><path d="M49.92,95.79A46.71,46.71,0,0,1,3.3,49.57c0,.19,0,.38,0,.57a46.71,46.71,0,0,0,93.42.16c0-.19,0-.38,0-.57A46.72,46.72,0,0,1,49.92,95.79Z" style="fill:#6d6f72"/><path d="M50.08,3A46.7,46.7,0,0,1,96.7,49.23c0-.19,0-.38,0-.57A46.71,46.71,0,1,0,3.29,48.5c0,.19,0,.38,0,.57A46.7,46.7,0,0,1,50.08,3Z" style="fill:#6d6f72"/><path d="M49.3,35.41l1.6,1.25L51.25,38l1.15-.63.32,1.89h.84l1.55,3.51-3.16-1-.26-2.83-.37,0,.14,2.42-.24.15L49.1,38.8l-.32.22-1.27.21,1.19,5.44.47-.58,3.14,3.29-.38.44-1.59-1-1,1.59c1.57,1.64,4.92-.84,5.5-3.51h2.3l0,.38-1.93.27-.82,3.34c-1.34-.63-2.44.37-3.18,1.13s-1,2.2-1.58,3.62l1.55,1.64-.08.86.31.08L52,54.52l1.84-1,.39-2.79c1.33,2.22,2.5,4.34,5.57,4.13a2.6,2.6,0,0,0,0-.53,5,5,0,0,0-.19-.65l1.12.15a4.62,4.62,0,0,0,.4,1.21c2,3.05,3,6.53,3.85,10,.81,3.15,2.56,5.72,4.33,8.32.82,1.19,1.64,2.39,2.39,3.62a5.39,5.39,0,0,1,.42,1.36l.53-.56c-.19,1-.39,1.9-.57,2.85a4.16,4.16,0,0,1-2.44,3.23c-2.39,1.17-4.57,2.8-7,3.77A34,34,0,0,1,45.25,89.7c-2.5-.33-5-.47-7.53-.86a11.22,11.22,0,0,1-3.48-1.33c3.69,1.33,7.53.91,11.3,1.1a33.24,33.24,0,0,0,13.93-2.2,16,16,0,0,0,5.7-3.19l-1.53-.5.15-.18-2.44-2.16-.15.18L60,79.06l-1.26.73-2.79,3.27-.52-.43.22,1.2c-.77-.34-1.48-1.32-2.42-.13l1.4.61-3.35.91L51.12,85l.63-.59L51,83.77l3.54-1.9-1.27-1h-2l.14.13c-2,.94-3.94,1.86-5.88,2.84-1.05.53-2,1.18-3.29,1.9h-.9l-.7,1.15-8-.81a6.09,6.09,0,0,1,.27-1.6c1.1-2,2.26-4,3.4-6l.51.87.49-.84L38,81c1.56-1.3.56-3.74,2.42-4.85,1.14,2.5-1.59,4.26-1,6.62a5.14,5.14,0,0,0,3.51-1.41A13.6,13.6,0,0,1,49,78.4a4.35,4.35,0,0,1,1.41.15l2.24.21.8-3.37c-.25-1.7.54-4-1.51-5.7l1.12.2L52,68.3l3.58,1.41L53,66.85l1.11-2.35-2.46-1c.72-2-.26-3.51-.07-5.06l0,0-1.88-1.75.79-.21-.91-.74-.94.5.11-1.17-2-1L46.9,52l.75-1.76-1.1-.4,1.77-1.91-2,.23L46.86,46,45,45.19,45,45H47.2l-.19-4c-.76-.48-1.84-1.24-3-1.83-.45-.24-1.14,0-1.63-.16-1-.41-2-1-3-1.48H36.15l-1.59,1.36h-.8l-2.18,1.89c-.55,1.5,0,3.42-1.7,4.56l.07,0-.43-.2L27.8,53.31h-.42l-.2-1.16.64-2.61-.46-.4L25,50.3l.71,1.9-1.16.36.54,4.59L23.46,58c.35.7.68,1.36,1,2l0,0a3,3,0,0,1-1.27-4.16c.43-1,.27-2.26.41-3.76a23.37,23.37,0,0,1,0-2.87A31,31,0,0,1,24.41,46l1.5.5c1.11.38,1.88-.08,1.94-1.25a15.17,15.17,0,0,0,0-3.69c-.11-.6-.93-1.15-1.54-1.52-.36-.22-.95,0-1.49,0l-.8-.85c-.08.16-.19.27-.18.38a2.35,2.35,0,0,0,1.87,2.41,1.81,1.81,0,0,1,1.52,2.36c-2.22-.91-4.38-1.69-6.69-.36v1.21l0,0a1.71,1.71,0,0,1-.76-2.48c1.69-3,2.82-6.37,5.17-9.06a5.72,5.72,0,0,0,1.2-3.28A17.8,17.8,0,0,1,29,21.66a44.32,44.32,0,0,1,5.7-7.47A19.23,19.23,0,0,1,50.9,7.82c4.86.38,9.18,2.37,13.35,4.8a20.29,20.29,0,0,1,8.34,9.82c1.94,4.44,3.06,9.16,1.94,14.12a3,3,0,0,0,1.07,2.93c2,2,2.33,4.57,1.84,7.27a18.09,18.09,0,0,1-.59,2,5.79,5.79,0,0,1-4.14,4l-.65.2c-2,4.93-1.5,9.59,0,14.68,1.74-2.93,4-3.91,6.76-2.6,1.54.73,1.34,2.51,1.63,3.86L75,67.48l.57-1.26c-1.78.12-2.4,1.32-3.06,2.39a12.77,12.77,0,0,0,3.9,5.77c1.44,1.38,1.64,3.24,1.75,5,.11,1.64-1,2.48-2.65,2.59l1.21-.83c.12-1.44-1-1.13-1.73-1.45-.53-1-1.06-2-1.72-3.21l.13-1.23,2.9,2.65c.49-1.22-3.17-6.91-5-7.9L71.74,69l-1-.24L69,58.9l-.55.88V58.46c-2.56-1.77-2-4.44-2.22-6.87l-1.89-.72,1.14,4.38-.47.14-.8-2-1-.89.17-2.84c2.08,0,3.94,1.67,5.72-.28l.08-1.08-1.51-1-.93.48c-.11-.71-.2-1.31-.29-1.92l.89-.26c1.41-2,.41-3.55-.44-5.14L65.2,40.3l-.06.24.9.6c1,1.61.49,3.19.39,4.74a4.44,4.44,0,0,1-.66-1,16.75,16.75,0,0,0-.35-1.64c-.54,1.44-.48,3.21-2.77,3.75,2.11-3.79-.09-6-2.65-8-.17,0-.51-.19-.85-.27s-.75-.11-1.45-.21l-.58-.64,2-.37-.1-.37L56.67,37l.49.93c-.73-.07-1.46-.12-2.18-.24a11,11,0,0,1-1.42-.43l2.61-1.61c-1-1-1.44-.14-2.13.42a2.13,2.13,0,0,0-2.44-2.18l-.1-.65L48,31.28,47.33,29h0a8.53,8.53,0,0,1,1.06.92,3.8,3.8,0,0,0,5.71.56,4.16,4.16,0,0,1,3.13,2.07,8.43,8.43,0,0,0,1,1.21l-1.29-.07-.11.44,1.11.46.28-.84c2.3.7,4.12,2.63,6.66,2.78a2.12,2.12,0,0,0-2.66-2.38L59,30.54l.34-.33c1.38,1.18,2.38,3.13,5.11,2.35l-2.82-1.27.1-.37,1.92.21V29.6a3.9,3.9,0,0,1-4.09-1.37,15.12,15.12,0,0,0-2.14-1.75l-.13.42-1.47,1.22-1.53.25-.13.45L48.76,26,49.58,29l-.35.15-.9-1.93-1.48-1.52V23.85L48,23.72,47.19,21l-2.29.82-.07,1.32-.74.69v1.51L43,23.86c-.67,1.27.49,3.12,3.12,5.15a1.9,1.9,0,0,0,1.11,2.67,9.3,9.3,0,0,1,1.27.84c.45.27.92.5,1.6.87l-2.7-.2,0,.23-.7-.51-.32.31a9.26,9.26,0,0,0,1.09,1.08c.62.43,1.31.77,2,1.15l-.89.27,1.61,2.33.4-.24Zm8.06,32.31-1.64-.51-1.49-1.38-.41.58c.35.75,1.17.71,1.93.77l1,1.54.55-1L58.7,68l0-.37C58.27,67.28,57.8,66.57,57.36,67.72ZM68.07,33.3l-.8-1.85L66.4,31l.13-.18L65.43,30l-.22.3a6.14,6.14,0,0,0,.7,1.09c.7.67,1.46,1.29,2.19,1.92a4.92,4.92,0,0,0,2.48,3.64C70.73,35.33,69.85,34.09,68.07,33.3ZM59.58,22.6c-1.86-2-4-.34-6.11-.52l-.74,1-4.57-1.93a2.1,2.1,0,0,0,2,2.37,21.85,21.85,0,0,1,2.44.82l-.11.42a15.88,15.88,0,0,0-1.69,0,12,12,0,0,0-1.55.35l0,.45,5.31.58-.09-1.59c.47.2.94.58,1.4.57a4.33,4.33,0,0,1,3.47,1.34c.48.52.85,1.14,1.34,1.64s1.25,1.26,2.47.48a27,27,0,0,0-3.67-3,32,32,0,0,0-4.61-1.79l-.28.51.1-1.3,2.45-.59.13.43-.74.61,3.89,1-.85-1.88a1.84,1.84,0,0,0,2.33.85c-.64-.51-1.21-1-1.77-1.42l-1.51-1.25-.25.31ZM31,33.73l.8,1.34c-.75.59-1.53,1.13-.72,2.31L32.28,37l.45-1.18,3.05-.24A2.93,2.93,0,0,0,34,31.87l-.52-2.38-.35,0-.34.74-1-1.37-2.53-.37L28,29.16l.08.26h2l1.94,2.9-.56.1Zm8.68-5.15-.3,2.19,2.6,2,3-.26.21-.42-1.6-.91.3-.31L46,32.07a3.54,3.54,0,0,0-1-1.83A15.58,15.58,0,0,0,43.2,29l.58-1.33-2.21-1-.11,1h-.9ZM27.12,36.63l.13-.87,2.24.58.28-5.9L27,29.63l-.66,3.79-.15,0-.54,2.91Zm16-3-.85,1.14.17,1.57c1.17.1,1.18,2.21,3,1.65l-2-2.14.36-.49,3.29,1.67.46-1.38-2.19-2.34v1.33ZM60,74.47l.32-.19-.49-3.1-2.5.23A12.5,12.5,0,0,1,59,72.77,11.54,11.54,0,0,1,60,74.47Zm7.39-22.72-.46,0a10.35,10.35,0,0,0,.27,1.59c.32.95.72,1.86,1.08,2.79.1.26.21.52.36.89C69.09,55.83,68.36,52.94,67.35,51.75Zm1.37-14.84.4-.42L66.47,34l-1,.21-.11.3,2.15,1.3Zm-8,.2a3.67,3.67,0,0,0,2.89,2.68C63.17,38.16,62.2,37.57,60.7,37.11ZM56.59,34.7c-.13-1.58-1.43-1.58-2.13-2.19l.11,1.66ZM69.87,56.44a3.28,3.28,0,0,0-.71-3.75ZM50.94,18c-.54-1.33-1.6-1.68-2.51-.9ZM36.71,31.73l-.39.11.16,1.74,1.32-.31Zm18-12.07,0-.5c-.68-.27-1.36-.61-2,.08l0,.54ZM39.43,31.87l.18-.27-1.88-1-.27.55Zm3.11,5.42-.4.08a2.8,2.8,0,0,0,0,1c0,.12.53.09,1.17.17Zm9-20.88-.18.5,1.34.31.11-.43Zm3.09,63.47.06-.46h-.85v.41ZM57,72.73v-.28H56v.28Zm5.52-50.37.34-.29-.78-.87-.28.24Zm-9.8,5.05.08-.4-1-.22-.09.44Zm19.63,9.36-.42.16.43,1.22.36-.13Zm-6.48-9.71-.34.39,1.11.83.23-.28ZM51.87,57h.31l0-.82-.3,0Zm6.51,8.48-.39.07.19.67.29-.07ZM35.16,29.53l0,.36.63,0,0-.23ZM69.4,28.05l-.33.3.58.54.24-.25Zm-20-9.38.15-.37L48.77,18l-.11.33Z" style="fill:#6d6f72"/><path d="M37.71,73.48a12.89,12.89,0,0,1-1.83-6.86,18.38,18.38,0,0,0-.26-2.54c.09-.22.18-.43.33-.76l-1-.09.74.87-4.1-1.16.7-.54-1.89-.55-.55-.68-1.76-.73v.11L24.51,60l0,0a34,34,0,0,1,5.62-1.28,26,26,0,0,1,5.2.67l0,.58L32.82,61l3.94,2.39c-1,3.58,0,6.88.93,10.17Z" style="fill:#6d6f72"/><path d="M77.81,70.74c3.15.3,2.88,2,2.35,4.66l-.92-2.52C80,71.83,78.3,71.66,77.81,70.74Z" style="fill:#6d6f72"/><path d="M62.48,47.29l-1,1.24L63.1,49l-.18.67L58.47,48Z" style="fill:#6d6f72"/><path d="M20.5,45.11l3.64-.84.05.22-1.14.92,0,.4-2.48-.74Z" style="fill:#6d6f72"/><path d="M45.79,24l.55,2.77C45.14,26.23,45,25.77,45.79,24Z" style="fill:#6d6f72"/><path d="M51.53,58.45,50,58.89l-1.31-1.42,2.86,1Z" style="fill:#6d6f72"/><path d="M75.7,70c-.23-1.12.21-1.52,1.41-1.31Z" style="fill:#6d6f72"/><path d="M56.76,30.3l1.45,1.61-.23.21-1.49-1.59Z" style="fill:#6d6f72"/><path d="M59.3,43.54,59,41.43C59.42,42,60.14,42.59,59.3,43.54Z" style="fill:#6d6f72"/><path d="M30,45.36l-.07,0,.5-.32.24.27-.7.9-.47-.48Z" style="fill:#6d6f72"/><path d="M25.4,44.56l1.18.63-.16.31-1.21-.63Z" style="fill:#6d6f72"/><path d="M51.34,77.64l.95.17,0,.34-1-.09Z" style="fill:#6d6f72"/><path d="M77.48,72.71l-1.18-.64.1-.21,1.24.53Z" style="fill:#6d6f72"/><path d="M38.4,77.56l0,1.07h-.28V77.55Z" style="fill:#6d6f72"/><path d="M37.69,73.51l.62,1.35-.46.12c-.05-.5-.09-1-.14-1.49Z" style="fill:#6d6f72"/><path d="M47.33,29l-.62-1.39.43-.11c.06.5.13,1,.19,1.5Z" style="fill:#6d6f72"/></g></g></svg>