<svg xmlns="http://www.w3.org/2000/svg" viewBox="0 0 100 100"><title>Asset 12</title><g id="Layer_2" data-name="Layer 2"><g id="dime-clipart-head-tail-3-1_crop_Image" data-name="dime-clipart-head-tail-3-1_crop Image"><circle cx="50" cy="50" r="50" style="fill:#6d6f72"/><circle cx="50" cy="49.46" r="48.91" style="fill:#b5b8ba"/><path d="M50,96A46.76,46.76,0,0,1,3.25,49.77c0,.19,0,.38,0,.57a46.77,46.77,0,0,0,93.54,0c0-.19,0-.38,0-.57A46.76,46.76,0,0,1,50,96Z" style="fill:#6d6f72"/><path d="M50.08,3.19A46.75,46.75,0,0,1,96.75,49.46c0-.19,0-.38,0-.57a46.77,46.77,0,0,0-93.54-.16c0,.19,0,.38,0,.57A46.75,46.75,0,0,1,50.08,3.19Z" style="fill:#6d6f72"/><path d="M68,50.92c1.32.75,3.13,1.17,2.4-.92,2.08,0,2.44-1.57,3.81-3.37.73-1,1.75-2,2.29-2.83.05-.08,1.5-3,1.45-2.76q2.1-1,0-2.49l-2.05-3.12c1.42-.92,1,3.39,2.7,2.56l-1.66-3.68c2,3.36,3.69,7,6.9,9.42-.78.68-3.14-1.79-3.92-2.4-1,2.32.8,7.64,1.31,10,.2.89,1.22,3,1.06,3.86-.18,1-1.66,1.31-2.26,2.36s.61,2.59-.54,4c0-1.87-.36-3.83.56-5.5-4.47,3-.78,8.42-4.09,12l-1.16-5.32a3.68,3.68,0,0,1,1.17,4.19c1.38-1.94-1-10.93-.5-11.08l1.09,2.74c.48-.7,1.22-2.14,1.89-2.5,2.4-1.26,1.08.33,2.65.22A141.82,141.82,0,0,0,78.9,41c-2.78,2.36-4.15,7.45-6.71,10.33A30,30,0,0,1,60,59.52c-.06.75,6.07,1.17,6.66,1.17,4,0,5.48-1,5.46,3.71,0,3-.16,3.91-2.7,3.94-1.71,0-3.46-.42-5.17-.56,0,0-3,.51-2.64.23.93,1.95.73,1.3-.27,1.31l-.69-1.06c-.31-.76-.93-.88-1.88-.36-1.55-.27-3.86-.35-4.52,1.07,0-1.32-.59-1.68-1.72-1.09a1.44,1.44,0,0,1-2.11-.49c-1.62.48-1.94.28-2.65,2.47,0-2.45.4-1.41-1.63-2.43a4.43,4.43,0,0,0-4.15.14c.06-.4-4.89-.71-5.25-.72-.63,0-1,.6-1.9.4a19.5,19.5,0,0,1-3.29-1.49c-.62,2.32,2.71,4,3.13,6.37-1.32-1.34-2.32-3.18-4.33-3.58-.07,1.41-.44,2.34,0,3.29s2.22,3.34,1.42,1c1.84,1.26,2.19,1.94,4,.24a4.83,4.83,0,0,0,1-4.55c2.2,1.37,1.07,2.87.52,4.78s-2,1.2-.41,3.29c.78,1.06,3,1.45,4.06,1.92-1.93.39-4.37-.76-5.84-2q-1.2-.34-.69-1.8H33.2c-.65-.47-1.68-.44-2.53-1.25-3.24-3,.52-7.88-2.19-11.81,1-.81.85,1.62,2,.35-.62,2.71,2.93,2.74,4.74,3.85-.17-1.86-1.81-1.36-2.9-2.24l2.74.33c-.65-1.87-.16-2.45,1.44-1.75-.89-2-.86-1.6-2.82-1.72l.72.66-3.81.75c1.16-.59,2.73-1.72,4.06-1.89,1.93-.24,2.39.64,4.29.71s5.63-.78,6.79-2.52c-7-.44-12.15-6.68-16.54-11.47-1.21,4.27-2.87,8.54-3.73,12.89C25,61.51,24.34,65.1,25.25,67c.07.16,3.59,2.22,2.25,3.2-.76-.88-3.19-3-3.57-4.12-.25-.73.54-2.67-.27-2.93L23.17,65c-1.49-2.44.13-2.75.42-5.43.21-2-.72-3.69-.76-5.62,0-1.56,1.86-11.66,3-11.58,0,3.49-4.22,10.93-1.43,13.88.77-3,1.2-6.55,2.4-9.4.42-1,3.68-4.8,5.14-3.51l-3,2.2c.62,1.09,1.37,1.27,2.24.54-1.37,2.21,1.83,4.71,4,4.15L33.8,51.33c2.08,1.2,2.11,1.49,4,.1,1.11-.84,3-4.75,2.63-6,.92-.5,1.5,0,1.74,1.42-1.9-.56-4.6,5.48-5.37,6.69,1.56.5,2.56.16,2.1,1.89l2-.38c0,2.51,1.29-.38,1.74,1.62,3-.55,1.36-7,1.57-9C44.71,43,45,42,41.65,38.5c1.73-.33,1.53.38,2.24,1.85,2.44-.73-3-7.35,1-7.65-.86-3.4-5.51-3.48-7.93-6-2.16-2.2-3-5.31-4-8.14a36.36,36.36,0,0,0-6,7.89c-.53,1-4.13,8.87-4.86,8.49l3.16-5.91c1.17-2.19,1.81-2.31-.26-3.73-2.6,4.05-4.7,8.39-7,12.59,1.29-4,2.56-8,5.13-11.38-4.67-1.64-8.73,13.19-10,16.52,2.18-.44,3.24-2.16,4.17-4,.63.5-.12,2.13-.28,2.78,2.89-.39,6.17-3.44,8.47-5,.75,1-2.62,2.63-3.25,3.67-1.31,2.19-.95,6.18-1.22,8.64-.24,2.16-.86,4.52-.48,6.68.2,1.06,2.42,5.09,1.12,5.52-1.14-3.12-2.37-5.54-1.9-8.89l1.56-11.23c-1.6.28-7.59,4.83-9.17,4C9.75,44.1,15.92,33.74,16.48,32c1.1-3.4,1.41-6,4.33-8.88a56.38,56.38,0,0,1,11.53-8.34c-3.68-1.12-9.87,5-12.2,7.22-1.75,1.69-6.53,7.42-6.53,9.87C16.48,25.52,19,21.45,24.67,17.24c3.85-2.85,9.36-6.7,10.33.34.72,5.25,2,10.43,8.08,11.86,7.18,1.69,5.45-9.35,1-6.56-3-5.06,8.81-6.17,11.22-3,1.62,2.16.51,5.92,2.4,8.05,2.33,2.63,5.18.77,7.59-.59,0,1.92-3.28,1.88-3,4.42.74-.34,3-.89,3.57-1.3,1-.73.74-.65,1.6-1.78C68.74,27,68.87,25,70.77,24.07c-.41-.85-.88.1-1.4-.53,1.5-1.8.88-2.36.38-4.58-.5.16-1.29,3.56-2,4.29,0-2.37-1-5.87.33-7.84,1.88-2.68,4.49-1.5,6.9.06C82.5,20.33,86.09,26.74,88.81,35A54.61,54.61,0,0,1,91,58.38c-.31,2.62-.22,9.46-1.74,11.53-2.09,2.85-5.76-.1-5.39-2.84,1.42,1.65,2.15,2.86,4.2,3.62.76-2.29,0-3.44-.94-5.75.47-.22,1.22,1.52,1.4,1.82,1.11-7.45,2.45-15,1.32-22.54-.87.93-2.23.48-3.46.42q.3,3.34.59,6.69c1.33-.14-2.73-7.57-3.21-8.51C87.88,44,90,45.37,89.2,39.76A37.35,37.35,0,0,0,85,26.87c-1,2.11-.7,1.72.85,3-2.86,1.11-.31,3.38.56,5.85.3.84,2,5.19,1.27,5.48-1.6-3.32-3.46-14.91-8.67-14,.77,1.54,6.69,12.36,5.88,12.8-1.53-2.78-2.75-5.72-4.34-8.47-1.43-2.47-2.44-5.67-5.27-4,.57.82,4,4.89,3.21,5.44L75.1,28.51c-.51,1.3-2.14,3.89-2,5.28.11,1.76,2.17,3.25,3.57,4.7-.76.81-3.74-3.11-4.1-3.56-.69,1-1.62,3.19-2.61,3.69,0,0-2.37,1.27-2-.11a1.53,1.53,0,0,0,2.45-.67c-.45-.4-3.29-2.49-3-3,1.9,1.19,2.35,2.39,3.8.38-2.94-2.07-3.13-3.08-5.45-.12-1.05,1.34-1.45,3.13-3.19,3.9l.16-2.54c-1.21-.11-2.26,9.08.25,10.37-.14-1.22,4.32-4.79,5.89-6.46-1.89,3.24-5.26,5.79-6.43,9.21-.84,2.48-.64,5.86-.34,8.37,1.45-.48,2.4-.27,2.4-1.89C66.85,56.33,70.59,53,68,50.92ZM27.62,47.15c.67-.45,1.28-1.84.26-2a26.45,26.45,0,0,1-1.16,5.07C27.49,50.34,27.53,47.7,27.62,47.15Zm47.05-21.3c1,.67,1.61.61,1.9-.15-.56-.77-1.78-2.51-2.9-2.55s-3.5,1.14-1.58,2.27c-1,.89-2.49-1.47-2.64,1.14C69.38,27.75,74,27.29,73,29c-2.44-1.25-4.81-1.56-4.43,2.21.18,1.83-2.68-.36,1.14,2.06,1.19.75,3.74,1.65,2.44-.81,2.08-.32,2.85-4.73,1.56-5.37C75.32,26.85,75.78,26.88,74.67,25.85ZM47,39.32c0,.88-.35,7.6.32,7.64-.65.48-.77,1.86.28,2,1.92-4.41,3.91-5.16,7.31-2.5,0-5,3.55,5.69,2.6,1.74,2.12,1.54,1.57-2.77,1-4.39a13.87,13.87,0,0,0-1-1.93c-.93-1.68-1.67-2.51-2.74-1-.46-2.24,1.57-5.11,2.23-7.55.88.14.07,1.32.95,1.25-.1-2.21-1.8-1.42-3.22-3.39,1.17-.31,1.2-.94.08-1.91.38-.28.74-.14,1.09.44.65-1-1.12-.86-1.55-1.52-.87-1.35.8-2.33-1.48-2.21,1.7-3-.84-4.17-2.87-1.53l2.18,1.71c-1.37,1.74-2.62-1.55-3.68,2.51-.56,2.18.23,3.06-2.87,4.16,1.21,1.34,1.5,1.34,1.5,3.28,2.21-2,.57.86,2.69-.84L50.6,37c-1.86-1.18-2.7-.15-2.45,2-.37,0-1.21-1.87-1.31-2.06C45.87,37.37,47.9,39.87,47,39.32ZM58.14,65.38c2.72-.17,5.53-.14,8.19-.27,3.26-.16,4.1.8,4.5-3-3.89.24-6.67-.25-9.46,2.59-.75-.53-.36-3.43-.36-4.12C59.37,61.8,58.13,63.23,58.14,65.38ZM37,61l-.94,2.38Q35.43,65.6,38,64.62c.74.21,5.74.2,5.82-.32-1.89-.24-2.39.22-2.84-1.78,1,.18,1.47-1,1.9-.82-.91,2.79.84,2.4,1.38.78.82,3.51,2.58-2.1,2.35-3l-1.79,1.58c-.09-1.76-2.75,0-3.14,0A25,25,0,0,1,37,61ZM84.27,25.32C81.12,20.69,75.1,13.65,69,15.39c.47,1.39,3.09.86,4.81,1.73a24.57,24.57,0,0,1,3.42,2.2c2.12,1.55,5.2,6.73,7.2,7.17Zm-36.7,38.6c.24.94-.38,1.09-1.84.47-.18,1.22,1.88.32-.12,1.43.13.24,3.22-.73,4.17-.52-.64-.78-.86-5.78-2.65-5.07.24,1.11-.94,2.36-1.64,3.69Zm.72-5.14c-.41.6,6.14,2.11,7.94.13l-3.45-1.65c-.63,2.18-1.9-.32-2.11,2.19Zm4.53-9.37,1.06,2.47-2.1-.7c1.07-1.61.7-1.37-.47-2.62.08,1.18.41,2.61.56,3.57s1.33.51.51,1.92c-.06-1.26-.4-1.69-1-1.3l1,2.4C53.63,53.6,57,49.41,52.82,49.41Zm.85-26.95c-1.48-2.95-2.86-.78-4.91-1-1.35-.14-1.89-1.59-3.52-1.45-2.88.27,2.51,1.76,3,1.84C49.88,22.12,51.89,22.29,53.67,22.46Zm2.44,41.73c.18-.76,1.29-3.64.57-4l-2.15,3.55Zm-2.94-2.06c-1.22,0-3.83.94-2.31,2.48l.8-2.12a1.21,1.21,0,0,1,.57,1.5C53.6,64.19,53.91,63.57,53.17,62.13ZM52.7,20.35c-.64-1-1.54-1.78-2.8-1.34C50.29,20.69,51.07,20.11,52.7,20.35Zm5.85,40.09c-1.38.31-1.77,1.45-1.41,3.68ZM81.47,26.27c.62-.63-.5-2.45-1.41-2.28ZM46.33,58.86c1.34.6.56-2.3.52-2.46C46.21,56.56,46.4,58.26,46.33,58.86Zm.52-39.73c-.25,1.12,1.28.94,2.24,1.13C49.28,19.42,47.53,19.33,46.85,19.13ZM26.19,24.29c1.52-.18,2-.7,1.54-1.7Zm28,39,.8-1.8C53.68,61.53,53.46,62,54.23,63.29Zm-3.58,1.5,2.28.67-1.28-1.57Zm-.53-3.6c-1.25.19-.36,2,.27,1.81Zm-6.75-4.14c.79.74,1.46-.31,1.1-1.17ZM58.3,58.16c-1,1.05-1,1.34,0,1.81Zm-3.7,6.48c-.14,1,.36,1.13,1.52.49C56.2,64.32,55.69,64.15,54.6,64.64Zm-.2,1.23c-.11.9.47,1,1.73.38C56.23,65.36,55.66,65.24,54.4,65.87ZM55,53.6c-.8-.13-.86,1.22-.06,1.26Zm1.5-20.93c.68-.42.49-.88-.57-1.37C55.15,31.73,55.35,32.19,56.45,32.67ZM58,54.41c.74.18.9-.31.46-1.45C57.81,52.83,57.65,53.31,58,54.41Zm-4.85,9.75c0,1.26,0,1.27,1.06.77Zm-2-8.73c.81-.16.79-.62-.07-1.38C50.42,54.19,50.44,54.65,51.15,55.43Zm23-34.65c.29-.66-.1-.9-1.2-.73C72.67,20.66,73.06,20.91,74.12,20.78ZM67.34,61.35c0,.61,1.27.62,1.31.12Zm.31,4.4c-.06.61,1.33.42,1.34.08Zm-2-33.07c-.63-.33-.88,0-.76,1C65.44,34,65.69,33.63,65.66,32.68Zm-19,19.47c-.64-.32-.83.1-.56,1.23C46.62,53.56,46.8,53.15,46.67,52.15ZM56.94,36.88c-.52-.43-.83-.16-.92.79C56.53,38.11,56.84,37.84,56.94,36.88Zm-4.85,9.48c.58-.22.52-.54-.17-1C51.44,45.56,51.5,45.89,52.09,46.36ZM32.24,15.64c.5.55,1.16-.12.67-.63ZM62.18,62.41c-.62-.16-.77.19-.45,1.06C62.35,63.63,62.5,63.28,62.18,62.41Z" style="fill:#6d6f72"/><path d="M55.33,83.5c.66,3.81,4.9,2.26,6.55,2.92-2.23,2.74-6.78-.35-8.33-2.39-1.6,1.79-1.73.9-3.54-.31,2.19,2.81-2.19,4.73-1.91,1.46l-2.28.5.58-1.59c-4.34,2-6,3.35-10.57,1.45,2.59-1.35,5.54-2.5,8.24-3.8-2.38,2-3.65,3.6-6.73,3.6-.14,1.44,1.9,1,2.33,0,1.54.64,4.84-2.9,6.17-4-1-1.31-4.92,1.52-6.36,2-.35-.75,1.93-2.15,2.39-2.53-2.07-1-2.1.91-3.38,1.87A6.69,6.69,0,0,1,33,84.25s4.26-2.35,4.82-3c-2.59.7-5.34,1.41-7.48-.71a6.09,6.09,0,0,0,6-.55c-.57-.08-3.65-.1-3.57-1a65.63,65.63,0,0,1,7.56.3c2.71.32,7,2.65,9.71,1.17-1-1.32-2.63-.18-3.66-1.26s-1-6.48-.84-7.85a6.84,6.84,0,0,1,1.15,7.07l3.22.33c-.28-1.26-.91-2.8,0-4,.46,3.5-.14,5.5,3.15,6.88-.68-1.76,3-.83,4.57-1.56,2.08-1,2-1.18,2-3.63-1.23.44-1.14,2.05-2.08,2.8-1.3,1-4.23.91-5.6.15L56,77.16c-.25-.52-2.79.8-3.09.92.07-.93.15-1.86.23-2.79-1-.25-.56,1.14-1.49.84.28-1.19.56-2.39.85-3.59,1.16,1.46,1,1.95,2.9,1.54L53.2,77c1,1,2-1.58,3.56-.6-.62-2.94,1.28-.3.44.66a7.2,7.2,0,0,1-3,2.28c3.52-.43,4-4.71,7.49-4.53l-1.9,2.88c3.08-.93.16,1.21.3,2.23a12.24,12.24,0,0,1,7.61-.43c-1.8,1.31.6,3.28-2,1,.12,2.75.54,1.93,1.93,1.5-.63.19,2.3-3.69,2.13-2.89l-3.51-.82c3.67-2.64,5.3-4.33,9.77-4.33-2.11,1,3.72,1,4.54.73-1,1.53-3.12,1.09-4.72,1-3.47-.11-4.49.45-7.46,2.46l3.05,1.11c-1.25,1.71-1.84,1.47.35,2.79-2.41.3-1.2.49-2.71,1.41.06,0-1.7,3.66-2,1.07,1.13.17,1.6-.33,1.41-1.49l-2.6,1.07-1.24-3.72c-.71.2-.71,2.71-.78,3.22l-8.13-1.7c-.42.81,1.94,2.56,2.43,3-.61.73-3.24-1.77-3.79-2.36C53.86,83.17,54.16,83.47,55.33,83.5Zm-5.55,1.4c-.09-.84-1.08-.37-1.08.63Z" style="fill:#6d6f72"/><path d="M22.07,68.2c-.23,1.17,1.87,0,2.72.28,1.72.58,3.78,3.83,4.95,5.11-2.12-.16-2.39-2-3.93-2.89-2-1.19-3.81-.76-6-1.1-1.38-.21-1.58-1-2.88-.64-.81.21-1.64,1.31-2.34,1.76-1.18.75-3.37,2.66-3.85.5,2.52,1,4.89-4.41,6.1-6.39,1.48-2.43,1.4-1.87.85-4.06-.17-.7-2.76-1.87-1-2.88.8,2.39,3.12,3.63,5.16,4.81-2.11.93.38,2,1.67,3.17-1.24.77-5.15-.54-1.78-.24l-2.79-3.51-2.14,4.71c1.46.8,2,1,1.51.59A3.64,3.64,0,0,0,22.07,68.2Z" style="fill:#6d6f72"/><path d="M13.58,31.85C12,38,9.81,44.29,10.19,50.7c.22,3.58,1,7.08,1.15,10.68,0,1.45,0,2.9-.07,4.35-.06,1.65-1.4,4.56,1.1,2.74-1.27.89-.92,1.56-2,2.08,0-7-1.13-14-1.25-21a28.92,28.92,0,0,1,1.45-9.82C11.27,37.65,13.58,34,13.58,31.85Z" style="fill:#6d6f72"/><path d="M35.61,77.57c-3.56-.32-4.74.24-7.91,1.32-3.44,1.17-3.56-.93-6.43-2.56-.21.55,5.86-.58,6.38-.69A8.49,8.49,0,0,1,35.61,77.57ZM28.77,76.3a3.36,3.36,0,0,0-3.15,1.2C26.73,78.21,28,77.75,28.77,76.3Z" style="fill:#6d6f72"/><path d="M74.64,70.27c.83-.53,3.94-3.1,4.52-2.29l-1.67,1.48c2.81,1.3,4.14-3.22,6.15-.76-2.24,2.41-6.64,1.4-8.75,4,.83-.48,1.25-.43,1.25.14l-2.59.41C73.87,72.43,74.38,71,74.64,70.27Z" style="fill:#6d6f72"/><path d="M79.77,65.12l-1.84,1.7c.72-.46,1.13-.45,1.24,0-.76.86-1.44,1-2,.45.63-1.27,5-11.5,5.93-11l-2,4.07c2.56,1.26,3.47-4,3.63-5.41C87.83,56.08,80.32,63.62,79.77,65.12Z" style="fill:#6d6f72"/><path d="M74.68,70.23c-2.61,2.5-6.13,6.61-9.78,7.21-.68-1.31,2.41-2.39,3.12-3.19,1.28-1.44,1.47-3.09,2.09-4.83,2.17,2.8-2.35,5.73-3.88,7.31,2.25-1.32,5.26-3.07,6.56-5.44,1-1.83.9-1.17.46-3.2-.14-.66-1.59-1.79-1-2.28C74.13,67.83,74.68,67.63,74.68,70.23Z" style="fill:#6d6f72"/><path d="M23.55,73l-.09.86,2.93.28a3.9,3.9,0,0,1-4.88.13A2.68,2.68,0,0,1,23.55,73Z" style="fill:#6d6f72"/><path d="M62.73,77.54c2.1-2.29-.76-2.91-.24-5.63.74,1.55,3.84,7.16-.78,6.24-.48-1.19-.15-1.82,1-1.87C62.22,76.92,62.24,77.34,62.73,77.54Z" style="fill:#6d6f72"/><path d="M18.27,67.45l-.11-1c1.06.19,6.14.34,3.91,1.77C21.85,67.19,18.92,67.43,18.27,67.45Z" style="fill:#6d6f72"/><path d="M28.53,25.33c.63-.67,2-2.87,2.84-2.11l-2.29,2.62Z" style="fill:#6d6f72"/><path d="M34.6,38.59l1.77.48-1.91,2C34.5,40.47,34.49,39.13,34.6,38.59Z" style="fill:#6d6f72"/><path d="M67.6,70,66,72.1q-1.74-2.22.43-1.76C66.93,69.61,67.33,69.48,67.6,70Z" style="fill:#6d6f72"/><path d="M14.62,45.52l-.46,4.83C14.1,50.35,13.69,45.45,14.62,45.52Z" style="fill:#6d6f72"/><path d="M33.88,34.45l2.36-2.92C36.74,31.94,34.63,35,33.88,34.45Z" style="fill:#6d6f72"/><path d="M38.88,31.64c.27-1.48,1-1.72,2.19-.74C40.51,31.22,39.34,32.28,38.88,31.64Z" style="fill:#6d6f72"/><path d="M43.43,75.43l-2.74-.92c0,.1,2.2,0,2.74-.89Z" style="fill:#6d6f72"/><path d="M34.63,38.56c-.88-.12-2.66-.75-1.09-1.73C33.77,38.5,34.14,39.08,34.63,38.56Z" style="fill:#6d6f72"/><path d="M39.81,35.2,38.6,37.1C37.71,36.55,38.88,34.61,39.81,35.2Z" style="fill:#6d6f72"/><path d="M23.57,73c1.15-.67,2.93-.11,3.86.63C26.22,73.43,24.72,73.17,23.57,73Z" style="fill:#6d6f72"/><path d="M65.24,27.36l1.35-2.06C67.85,26.22,65.24,26.93,65.24,27.36Z" style="fill:#6d6f72"/><path d="M39.12,30.19l-.77,1.21C37.67,31,38.3,29.68,39.12,30.19Z" style="fill:#6d6f72"/><path d="M12.09,66.13c.06-1.91.53-2.48,1.39-1.74C12,65.07,11.49,65.64,12.09,66.13Z" style="fill:#6d6f72"/><path d="M20.38,38.59c.2-1.64.66-2.21,1.4-1.7C21.6,38.65,21.13,39.21,20.38,38.59Z" style="fill:#6d6f72"/><path d="M39.72,76.34l1.07,1.4C39.35,77.38,39,76.91,39.72,76.34Z" style="fill:#6d6f72"/><path d="M35.22,50.21l1.14-2C37.07,48.76,35.75,49.83,35.22,50.21Z" style="fill:#6d6f72"/><path d="M46.12,70c1.24-.24,1.73,0,1.46.7C46.14,70.93,45.65,70.7,46.12,70Z" style="fill:#6d6f72"/><path d="M29.26,65.85c-.77-1.24-.74-1.88.08-1.9C30.14,65.21,30.11,65.84,29.26,65.85Z" style="fill:#6d6f72"/><path d="M15.94,52.84l.13-2.29C16.63,50.59,16.36,52.87,15.94,52.84Z" style="fill:#6d6f72"/><path d="M14.68,64.84c.11,1.36-.18,1.89-.86,1.6C13.65,65,13.93,64.48,14.68,64.84Z" style="fill:#6d6f72"/><path d="M36.74,43.64c.65-1,.45-1.43,1.52-.49Z" style="fill:#6d6f72"/><path d="M43.31,44.75c.28-1.16.68-1.47,1.19-.94C44.22,45,43.83,45.3,43.31,44.75Z" style="fill:#6d6f72"/><path d="M12.06,66.1c.38,1,.2,1.39-.55,1.07C12.21,66.72,12.39,66.36,12.06,66.1Z" style="fill:#6d6f72"/><path d="M87.06,52.81c.41,1.07.32,1.59-.26,1.54C86.29,53.24,86.37,52.73,87.06,52.81Z" style="fill:#6d6f72"/><path d="M66.86,49.24,68,50.92A13,13,0,0,0,66.86,49.24Z" style="fill:#6d6f72"/><path d="M40.1,35.82c.52-.81.93-.92,1.21-.34C40.81,36.36,40.41,36.48,40.1,35.82Z" style="fill:#6d6f72"/><path d="M13.82,56.92c-.34-.75-.28-1.09.18-1C14.33,56.54,14.27,56.89,13.82,56.92Z" style="fill:#6d6f72"/><path d="M66.89,49.22c-1.52-.18-2-.58-1.44-1.21C65.86,49.15,66.34,49.56,66.89,49.22Z" style="fill:#6d6f72"/><path d="M59.91,70.45q.75-.78,1-.12Q60.09,71.29,59.91,70.45Z" style="fill:#6d6f72"/><path d="M38.23,32.26l-.73-.09C37.52,31.64,38.26,31.57,38.23,32.26Z" style="fill:#6d6f72"/><path d="M28.25,65.19c.34.72.28,1.07-.18,1C27.73,65.37,27.78,65,28.25,65.19Z" style="fill:#6d6f72"/><path d="M12.37,68.47c.18-1,.46-1.18.86-.65C12.37,68,12.08,68.2,12.37,68.47Z" style="fill:#6d6f72"/><path d="M54.33,43.71l.17,1.22C53.6,45.11,53.29,43.91,54.33,43.71Z" style="fill:#6d6f72"/><path d="M48.9,37.62l1.08,1C49.64,39,48.45,38.13,48.9,37.62Z" style="fill:#6d6f72"/><path d="M52.86,43.23c-.77-.15-1-.43-.56-.84C53.15,42.51,53.33,42.79,52.86,43.23Z" style="fill:#6d6f72"/><path d="M74.7,25.82l-2-1.3C73.33,23.78,74.7,25.2,74.7,25.82Z" style="fill:#6d6f72"/></g></g></svg>